<svg width="122" height="40" viewBox="0 0 122 40" fill="none" xmlns="http://www.w3.org/2000/svg">
<path d="M113.544 4.9372C113.221 4.86795 112.775 4.9554 112.464 5.14683C111.9 5.49503 111.483 6.23588 111.416 6.99881C111.314 8.19282 112.023 9.1339 112.992 9.09178C113.203 9.08219 113.551 8.97346 113.737 8.85581C114.301 8.50761 114.718 7.76676 114.786 7.00383C114.873 5.96705 114.361 5.11175 113.544 4.9372Z" fill="#FF2929"/>
<path d="M117.409 6.78005C117.141 6.72275 116.886 6.73702 116.571 6.83027C115.66 7.09809 114.919 8.01249 114.836 8.97465C114.809 9.2845 114.835 9.48951 114.937 9.75607C115.361 10.8554 116.736 10.9816 117.741 10.0146C118.188 9.58513 118.47 9.01235 118.521 8.43927C118.548 8.12943 118.521 7.92441 118.419 7.65786C118.24 7.19312 117.88 6.88006 117.409 6.78005Z" fill="#FF2929"/>
<path d="M109.409 5.90312C109.162 5.84756 108.961 5.85394 108.722 5.92118C108.342 6.03138 108.041 6.28961 107.813 6.70154C107.449 7.36326 107.437 8.28293 107.783 9.04513C108.116 9.77544 108.668 10.1858 109.33 10.1928C109.843 10.197 110.302 9.8951 110.599 9.36005C110.962 8.69833 110.976 7.78804 110.629 7.02C110.488 6.70337 110.318 6.46422 110.105 6.27762C109.924 6.11755 109.602 5.94443 109.409 5.90312Z" fill="#FF2929"/>
<path d="M119.222 10.599C118.41 10.4211 117.449 10.7868 116.796 11.5226C116.589 11.7576 116.331 12.2774 116.295 12.5403C116.156 13.5068 116.878 14.2415 117.936 14.2111C118.216 14.2034 118.827 14.0245 119.092 13.8739C119.363 13.72 119.625 13.5109 119.836 13.2748C120.059 13.0274 120.317 12.5193 120.359 12.2449C120.483 11.4379 120.026 10.7755 119.222 10.599Z" fill="#FF2929"/>
<path d="M113.577 9.90574C113.547 9.89676 113.451 9.87087 113.366 9.84763C113.282 9.82438 113.093 9.79955 112.947 9.79219C112.477 9.77157 112.013 9.94378 111.053 10.4963C110.594 10.7585 110.282 10.8507 109.735 10.8841C108.859 10.9392 108.676 10.9624 108.406 11.0428C107.953 11.1779 107.666 11.4062 107.446 11.8078C107.193 12.2646 107.177 12.7067 107.387 13.2061C107.527 13.5332 107.673 13.7274 107.937 13.9352C108.32 14.2395 108.711 14.3666 109.89 14.5694C110.963 14.7553 111.171 14.8122 111.606 15.042C111.961 15.2312 112.121 15.3499 112.744 15.8987C113.697 16.7353 114.007 16.9455 114.487 17.0726C114.982 17.2036 115.556 17.1067 115.95 16.8217C116.474 16.4433 116.716 15.8344 116.592 15.2147C116.517 14.8449 116.404 14.6412 115.78 13.7666C115.458 13.3155 115.322 12.9874 115.245 12.481C115.057 11.2338 114.846 10.7344 114.348 10.3242C114.225 10.2229 113.689 9.93089 113.577 9.90574Z" fill="#FF2929"/>
<path d="M17.712 28.6C17.712 29.968 17.544 31.06 17.208 31.876C16.872 32.668 16.404 33.22 15.804 33.532C15.228 33.844 14.46 34 13.5 34C12.084 34 11.052 33.628 10.404 32.884C9.78 32.116 9.456 30.772 9.432 28.852L9.36 15.568H6.3C4.788 15.568 3.648 15.328 2.88 14.848C2.136 14.368 1.764 13.516 1.764 12.292C1.764 11.548 1.908 10.96 2.196 10.528C2.508 10.096 2.964 9.796 3.564 9.628C4.164 9.436 4.968 9.34 5.976 9.34H21.384C22.728 9.34 23.7 9.58 24.3 10.06C24.9 10.54 25.2 11.368 25.2 12.544C25.2 13.336 25.02 13.96 24.66 14.416C24.324 14.848 23.868 15.148 23.292 15.316C22.716 15.484 21.972 15.568 21.06 15.568H17.712V28.6ZM29.2289 34.216C27.3329 34.216 25.7609 33.448 24.5129 31.912C23.2649 30.352 22.6409 28.228 22.6409 25.54C22.6409 22.804 23.2529 20.632 24.4769 19.024C25.7249 17.392 27.3089 16.576 29.2289 16.576C31.1729 16.576 32.9729 17.26 34.6289 18.628C35.2769 17.428 36.3209 16.828 37.7609 16.828C39.0569 16.828 40.0649 17.116 40.7849 17.692C41.5049 18.244 41.8649 19.276 41.8649 20.788V30.148C41.8649 31.588 41.5649 32.596 40.9649 33.172C40.3649 33.724 39.3089 34 37.7969 34C36.2129 34 35.1689 33.556 34.6649 32.668C33.1289 33.7 31.3169 34.216 29.2289 34.216ZM34.1249 22.084C33.7169 21.388 33.1889 21.04 32.5409 21.04C31.9169 21.04 31.4129 21.496 31.0289 22.408C30.6449 23.32 30.4529 24.364 30.4529 25.54C30.4529 26.644 30.6329 27.628 30.9929 28.492C31.3529 29.356 31.8569 29.788 32.5049 29.788C33.1769 29.788 33.7169 29.464 34.1249 28.816V22.084ZM45.1418 11.824C45.1418 11.032 45.4778 10.384 46.1498 9.88C46.8458 9.352 47.8178 9.088 49.0658 9.088C51.6818 9.088 52.9898 10 52.9898 11.824C52.9898 12.832 52.6538 13.54 51.9818 13.948C51.3338 14.356 50.3618 14.56 49.0658 14.56C47.9378 14.56 47.0018 14.344 46.2578 13.912C45.5138 13.48 45.1418 12.784 45.1418 11.824ZM52.9538 30.148C52.9538 31.588 52.6538 32.596 52.0538 33.172C51.4538 33.724 50.3978 34 48.8857 34C47.4698 34 46.4978 33.676 45.9697 33.028C45.4658 32.356 45.2138 31.264 45.2138 29.752V20.896C45.2138 19.672 45.5378 18.688 46.1858 17.944C46.8578 17.2 47.7458 16.828 48.8498 16.828C50.1458 16.828 51.1538 17.116 51.8738 17.692C52.5938 18.244 52.9538 19.276 52.9538 20.788V30.148ZM64.1385 28.564C64.1385 30.508 63.8145 31.9 63.1665 32.74C62.5185 33.58 61.5225 34 60.1785 34C58.8345 34 57.8505 33.628 57.2265 32.884C56.6025 32.116 56.2905 30.772 56.2905 28.852L56.2185 13.66C56.2185 13.036 56.2785 12.484 56.3985 12.004C56.5425 11.524 56.7225 11.116 56.9385 10.78C57.1785 10.444 57.4665 10.168 57.8025 9.952C58.1385 9.736 58.4985 9.58 58.8825 9.484C59.2905 9.388 59.7225 9.34 60.1785 9.34C61.4985 9.34 62.4825 9.604 63.1305 10.132C63.8025 10.66 64.1385 11.728 64.1385 13.336V28.564ZM82.8053 16.108C82.8053 15.604 82.5893 15.172 82.1573 14.812C81.7493 14.452 81.2573 14.272 80.6813 14.272C79.5293 14.272 78.5813 14.932 77.8373 16.252C77.0933 17.548 76.7213 19.024 76.7213 20.68C76.7213 21.952 76.9613 23.104 77.4413 24.136C77.9213 25.144 78.6173 25.948 79.5293 26.548C80.4413 27.148 81.4973 27.448 82.6973 27.448C83.5853 27.448 84.4373 27.28 85.2533 26.944C86.0693 26.584 86.7293 26.2 87.2333 25.792C87.7373 25.36 88.2533 24.976 88.7813 24.64C89.3333 24.28 89.8133 24.1 90.2213 24.1C90.7493 24.1 91.2053 24.316 91.5893 24.748C91.9733 25.156 92.1653 25.588 92.1653 26.044C92.1653 26.548 92.0093 27.136 91.6973 27.808C91.4093 28.48 90.9413 29.2 90.2933 29.968C89.6453 30.712 88.8893 31.408 88.0253 32.056C87.1613 32.68 86.0813 33.208 84.7853 33.64C83.5133 34.048 82.1693 34.252 80.7533 34.252C78.8813 34.252 77.1413 33.976 75.5333 33.424C73.9493 32.848 72.5693 32.044 71.3933 31.012C70.2173 29.956 69.2933 28.636 68.6213 27.052C67.9493 25.468 67.6133 23.692 67.6133 21.724C67.6133 17.836 68.7773 14.764 71.1053 12.508C73.4333 10.252 76.4813 9.124 80.2493 9.124C82.1693 9.124 83.9453 9.448 85.5773 10.096C87.2093 10.744 88.5053 11.644 89.4653 12.796C90.4253 13.948 90.9053 15.208 90.9053 16.576C90.9053 18.16 90.3773 19.6 89.3213 20.896C88.2653 22.168 86.8973 22.804 85.2173 22.804C84.2573 22.804 83.3933 22.54 82.6253 22.012C81.8573 21.484 81.4733 20.728 81.4733 19.744C81.4733 19.288 81.6893 18.652 82.1213 17.836C82.5773 17.02 82.8053 16.444 82.8053 16.108ZM106.905 25.468C106.905 24.22 106.749 23.128 106.437 22.192C106.125 21.232 105.669 20.752 105.069 20.752C104.661 20.752 104.301 20.992 103.989 21.472C103.677 21.952 103.449 22.54 103.305 23.236C103.161 23.932 103.089 24.676 103.089 25.468C103.089 26.692 103.257 27.772 103.593 28.708C103.929 29.62 104.409 30.076 105.033 30.076C105.657 30.076 106.125 29.62 106.437 28.708C106.749 27.796 106.905 26.716 106.905 25.468ZM105.033 34.252C103.161 34.252 101.469 33.916 99.9571 33.244C98.4691 32.572 97.2691 31.564 96.3571 30.22C95.4691 28.876 95.0251 27.304 95.0251 25.504C95.0251 22.768 95.9611 20.596 97.8331 18.988C99.7051 17.38 102.105 16.576 105.033 16.576C107.961 16.576 110.349 17.38 112.197 18.988C114.045 20.596 114.969 22.768 114.969 25.504C114.969 28.216 114.021 30.352 112.125 31.912C110.253 33.472 107.889 34.252 105.033 34.252Z" fill="#FF2929"/>
</svg>
