<svg width="35" height="30" viewBox="0 0 35 30" fill="none" xmlns="http://www.w3.org/2000/svg">
<path d="M34.5256 10.3992C34.0476 9.28215 33.3789 8.38473 32.5362 7.73625C31.5597 6.98549 30.3845 6.58633 29.1406 6.58633C28.9503 6.58633 28.7635 6.59704 28.5732 6.61527C28.5771 5.49826 28.3302 4.47638 27.8356 3.61186C27.2603 2.53488 26.5311 1.68147 25.6599 1.07341C24.6632 0.370224 23.492 0 22.2805 0C20.5906 0 18.9414 0.717853 17.6369 2.02196C17.5883 2.06953 17.5435 2.11749 17.4949 2.16862C17.4506 2.12106 17.4019 2.06953 17.3532 2.02196C16.0483 0.717853 14.3992 0 12.7097 0C11.4977 0 10.327 0.370224 9.33031 1.07341C8.46299 1.68503 7.73379 2.53845 7.15806 3.61186C6.63539 4.53108 6.41658 5.56406 6.42053 6.61527C6.23418 6.59704 6.04387 6.58633 5.85752 6.58633C4.60959 6.58633 3.4384 6.98549 2.4619 7.73625C1.61914 8.38473 0.950449 9.27858 0.472502 10.3992C-0.66624 12.8829 0.447947 15.8498 1.75682 17.6482C2.34439 18.4541 3.01702 19.1173 3.76244 19.6191C4.11104 19.8537 4.47191 20.0476 4.84024 20.2053C4.43946 21.0881 4.14743 21.9597 3.98125 22.7913C3.31694 26.0988 5.73167 29.2821 9.36232 29.8827C9.82843 29.96 10.3108 30 10.801 30C12.8312 30 14.9543 29.3226 16.6236 28.1429C16.6521 28.1247 16.6644 28.1136 16.6723 28.11C17.1993 27.7878 17.4423 27.718 17.5032 27.7033C17.5637 27.718 17.8071 27.7878 18.3337 28.11C18.3376 28.1136 18.3539 28.1247 18.3824 28.1429C20.0517 29.3226 22.1752 30 24.205 30C24.6952 30 25.1775 29.96 25.6436 29.8827C29.2743 29.2786 31.6895 26.0988 31.0247 22.7913C30.8585 21.9597 30.5669 21.0881 30.1657 20.2053C30.5345 20.0476 30.8949 19.8537 31.2435 19.6191C31.9889 19.1173 32.666 18.4541 33.2491 17.6482C34.5501 15.8498 35.6683 12.8829 34.5256 10.3992ZM18.5078 6.54947C19.2615 3.26027 22.9816 0.959648 25.0478 4.87197C26.8267 7.90471 22.4059 15.4654 19.0348 10.685C18.2162 9.51641 18.1675 7.85714 18.5078 6.54947ZM9.94199 4.87197C12.0086 0.959648 15.7282 3.26027 16.482 6.54947C16.8222 7.85714 16.7736 9.51641 15.9554 10.6889C12.5839 15.4654 8.16306 7.90471 9.94199 4.87197ZM3.35729 11.4508C4.90119 7.78381 8.44676 9.61194 9.39476 12.5277C9.80825 13.6852 9.90165 15.1867 9.25708 16.297C6.59899 20.8352 1.99579 14.3079 3.35729 11.4508ZM25.0723 27.1135C23.5043 27.3736 21.6684 26.8975 20.295 25.9267C20.2262 25.8792 20.1573 25.8316 20.0841 25.7876C19.1037 25.1907 18.3012 24.8902 17.4949 24.8902C16.6885 24.8902 15.8865 25.1907 14.9056 25.7876C14.8328 25.8316 14.764 25.8792 14.6952 25.9267C13.3214 26.8975 11.4859 27.3736 9.91744 27.1135C7.96049 26.7877 6.68406 25.0662 7.04055 23.2967C7.75791 19.7106 11.7086 14.9084 15.5217 13.4505C16.1496 13.2087 16.8222 13.0918 17.4949 13.0918C18.1675 13.0918 18.8362 13.2127 19.4685 13.4505C23.2811 14.9049 27.2318 19.7106 27.9531 23.2967C28.3057 25.0662 27.0293 26.7877 25.0723 27.1135ZM25.7366 16.297C25.0925 15.1867 25.1859 13.6852 25.5989 12.5277C26.5474 9.61194 30.0929 7.78024 31.6364 11.4508C32.9939 14.3079 28.3907 20.8352 25.7366 16.297Z" fill="#EB5757"/>
</svg>
