<svg width="400" height="400" viewBox="0 0 400 400" fill="none" xmlns="http://www.w3.org/2000/svg">
<path d="M151.388 1.18201C146.215 3.50458 142.914 8.77504 142.914 14.6708C142.914 16.7254 146.126 24.0504 152.726 37.3606L162.538 57.1025H100.279C47.2962 57.1025 37.2171 57.2811 32.7573 58.4424C17.4155 62.4623 5.55246 74.4325 1.53863 89.8865C-0.512878 97.5689 -0.512878 316.784 1.53863 324.467C6.71201 344.387 23.7485 357.251 44.8879 357.251H51.8452L47.3854 370.382C42.3013 385.479 42.1229 389.052 46.1367 394.412C51.0425 400.844 59.7837 401.826 66.0274 396.824C69.0601 394.412 69.7737 392.715 75.5714 375.742L81.8151 357.251H200H318.185L324.429 375.742C330.226 392.715 330.94 394.412 333.973 396.824C340.216 401.826 348.958 400.844 353.863 394.412C357.877 389.052 357.699 385.479 352.615 370.382L348.155 357.251H355.112C376.252 357.251 393.288 344.387 398.461 324.467C400.513 316.784 400.513 97.5689 398.461 89.8865C394.448 74.4325 382.584 62.4623 367.243 58.4424C362.783 57.2811 352.704 57.1025 299.721 57.1025H237.462L247.274 37.3606C254.053 23.7825 257.086 16.7254 257.086 14.5815C257.086 2.43262 242.993 -4.44577 233.895 3.23659C231.932 4.84453 227.294 13.2415 218.196 31.2862L205.352 57.1025H200H194.648L181.804 31.3755C174.758 17.2614 168.068 4.84453 166.908 3.77257C162.716 -0.0686117 156.561 -1.05124 151.388 1.18201Z" fill="#2B2A4C"/>
</svg>
